<?xml version="1.0" encoding="utf-8"?>
<!-- Generator: Adobe Illustrator 27.2.0, SVG Export Plug-In . SVG Version: 6.00 Build 0)  -->
<svg version="1.1" id="Слой_1" xmlns="http://www.w3.org/2000/svg" xmlns:xlink="http://www.w3.org/1999/xlink" x="0px" y="0px"
	 viewBox="0 0 800 800" style="enable-background:new 0 0 800 800;" xml:space="preserve">
<style type="text/css">
	.st0{fill:#010202;}
	.st1{fill:#FFFFFF;}
</style>
<rect x="0" y="0.5" class="st0" width="800" height="800"/>
<g>
	<path class="st1" d="M148.62,401.66h-17.26v-49.42l-37.23,29.29h-3.8l-60.12-46.65v-2.27h23.33l38.71,29.98l38.66-29.98h17.7
		V401.66z"/>
	<path class="st1" d="M232.02,348.25l-39.4,53.41h-18.3v-2.27l48.87-66.77h18l48.92,66.77v2.27h-18.44L232.02,348.25z"/>
	<path class="st1" d="M356.89,364.28l33.63-31.66h21.35v2.27l-46.5,43.55v23.23h-17.26v-23.28l-46.41-43.5v-2.27h21.55
		L356.89,364.28z"/>
	<path class="st1" d="M528.12,348.15h-42.71v53.51h-17.26v-53.51h-42.71v-15.53h102.68V348.15z"/>
	<path class="st1" d="M638.39,351.55v4.44c0,12.23-6.66,18.89-18.89,18.89h-11.74l32.3,24.51v2.27h-20.81l-45.91-34.52v-7.74h42.21
		c4.83,0,5.57-0.79,5.57-5.62c0-4.88-0.74-5.62-5.57-5.62h-68.5v-15.53h72.45C631.73,332.62,638.39,339.27,638.39,351.55z"/>
	<path class="st1" d="M713.45,364.28l33.63-31.66h21.35v2.27l-46.5,43.55v23.23h-17.26v-23.28l-46.41-43.5v-2.27h21.55
		L713.45,364.28z"/>
</g>
<g>
	<path class="st1" d="M231.34,453.12h-28.97c-2.06,0-2.37,0.31-2.37,2.37v11.26c0,2.06,0.31,2.37,2.37,2.37h28.97v6.54h-30.63
		c-5.17,0-7.97-2.8-7.97-7.97v-13.12c0-5.17,2.8-7.97,7.97-7.97h30.63V453.12z"/>
	<path class="st1" d="M278.33,454.55v13.12c0,5.17-2.8,7.97-7.95,7.97H244.1c-5.17,0-7.97-2.8-7.97-7.97v-13.12
		c0-5.17,2.8-7.97,7.97-7.97h26.27C275.52,446.58,278.33,449.38,278.33,454.55z M245.76,469.11h22.95c2.04,0,2.35-0.31,2.35-2.37
		v-11.26c0-2.06-0.31-2.37-2.35-2.37h-22.95c-2.06,0-2.37,0.31-2.37,2.37v11.26C243.4,468.8,243.71,469.11,245.76,469.11z"/>
	<path class="st1" d="M291.38,456.46v19.19h-7.27v-29.49h3.63l29.59,19.31v-18.9h7.27v29.49h-3.63L291.38,456.46z"/>
	<path class="st1" d="M369.99,453.12h-17.98v22.53h-7.27v-22.53h-17.98v-6.54h43.24V453.12z"/>
	<path class="st1" d="M406.95,454.55v1.87c0,5.15-2.8,7.95-7.95,7.95h-4.94l13.6,10.32v0.96h-8.76l-19.33-14.54v-3.26h17.78
		c2.04,0,2.35-0.33,2.35-2.37c0-2.06-0.31-2.37-2.35-2.37h-28.85v-6.54h30.51C404.14,446.58,406.95,449.38,406.95,454.55z"/>
	<path class="st1" d="M453.68,454.55v13.12c0,5.17-2.8,7.97-7.95,7.97h-26.27c-5.17,0-7.97-2.8-7.97-7.97v-13.12
		c0-5.17,2.8-7.97,7.97-7.97h26.27C450.88,446.58,453.68,449.38,453.68,454.55z M421.12,469.11h22.95c2.04,0,2.35-0.31,2.35-2.37
		v-11.26c0-2.06-0.31-2.37-2.35-2.37h-22.95c-2.06,0-2.37,0.31-2.37,2.37v11.26C418.75,468.8,419.06,469.11,421.12,469.11z"/>
	<path class="st1" d="M466.78,446.58v22.53h30.07v6.54h-37.38v-29.07H466.78z"/>
	<path class="st1" d="M506.56,446.58v22.53h30.07v6.54h-37.38v-29.07H506.56z"/>
	<path class="st1" d="M539.03,446.58h35.68v6.54h-35.68V446.58z M539.03,469.11h36.22v6.54h-36.22V469.11z M552.63,457.85v6.52
		H539.3v-6.52H552.63z"/>
	<path class="st1" d="M618.35,454.55v13.12c0,5.17-2.8,7.97-7.95,7.97h-30.22v-6.54h28.53c2.06,0,2.37-0.31,2.37-2.37v-11.26
		c0-2.06-0.31-2.37-2.37-2.37h-28.53v-6.54h30.22C615.54,446.58,618.35,449.38,618.35,454.55z"/>
	<path class="st1" d="M257.37,528.9v13.12c0,5.17-2.8,7.97-7.95,7.97h-30.22v-6.54h28.53c2.06,0,2.37-0.31,2.37-2.37v-11.26
		c0-2.06-0.31-2.37-2.37-2.37h-28.53v-6.54h30.22C254.56,520.93,257.37,523.73,257.37,528.9z"/>
	<path class="st1" d="M270.42,520.93V550h-7.27v-29.07H270.42z"/>
	<path class="st1" d="M312.09,527.47h-26.48c-2.04,0-2.37,0.31-2.37,2.33c0,2.01,0.33,2.35,2.37,2.35h20.19
		c5.15,0,7.95,2.8,7.95,7.95v1.93c0,5.17-2.8,7.97-7.95,7.97h-29.95v-6.54h28.29c2.04,0,2.35-0.31,2.35-2.37v-0.06
		c0-2.06-0.31-2.37-2.35-2.37h-20.19c-5.15,0-7.97-2.8-7.97-7.95v-1.81c0-5.17,2.82-7.97,7.97-7.97h28.14V527.47z"/>
	<path class="st1" d="M358.4,527.47h-17.98V550h-7.27v-22.53h-17.98v-6.54h43.24V527.47z"/>
	<path class="st1" d="M402.47,528.9v13.12c0,5.17-2.8,7.97-7.95,7.97h-26.27c-5.17,0-7.97-2.8-7.97-7.97V528.9
		c0-5.17,2.8-7.97,7.97-7.97h26.27C399.67,520.93,402.47,523.73,402.47,528.9z M369.91,543.46h22.95c2.04,0,2.35-0.31,2.35-2.37
		v-11.26c0-2.06-0.31-2.37-2.35-2.37h-22.95c-2.06,0-2.37,0.31-2.37,2.37v11.26C367.54,543.15,367.85,543.46,369.91,543.46z"/>
	<path class="st1" d="M443.06,528.9v1.87c0,5.15-2.8,7.95-7.96,7.95h-4.94l13.6,10.32V550H435l-19.33-14.54v-3.26h17.78
		c2.04,0,2.35-0.33,2.35-2.37c0-2.06-0.31-2.37-2.35-2.37H404.6v-6.54h30.51C440.26,520.93,443.06,523.73,443.06,528.9z"/>
	<path class="st1" d="M487.2,527.47h-17.98V550h-7.27v-22.53h-17.98v-6.54h43.24V527.47z"/>
	<path class="st1" d="M496.62,520.93V550h-7.27v-29.07H496.62z"/>
	<path class="st1" d="M544.61,528.9v13.12c0,5.17-2.8,7.97-7.95,7.97h-26.27c-5.17,0-7.97-2.8-7.97-7.97V528.9
		c0-5.17,2.8-7.97,7.97-7.97h26.27C541.81,520.93,544.61,523.73,544.61,528.9z M512.05,543.46H535c2.04,0,2.35-0.31,2.35-2.37
		v-11.26c0-2.06-0.31-2.37-2.35-2.37h-22.95c-2.06,0-2.37,0.31-2.37,2.37v11.26C509.68,543.15,509.99,543.46,512.05,543.46z"/>
	<path class="st1" d="M557.66,530.81V550h-7.27v-29.49h3.63l29.59,19.31v-18.9h7.27v29.49h-3.63L557.66,530.81z"/>
</g>
</svg>
